<svg width="239" height="48" viewBox="0 0 239 48" fill="none" xmlns="http://www.w3.org/2000/svg">
<path d="M0.72 2.4H14.832C19.664 2.4 23.264 3.104 25.632 4.512C28 5.888 29.184 8.368 29.184 11.952C29.184 15.92 27.744 18.656 24.864 20.16C22.176 21.536 18.416 22.224 13.584 22.224H13.2V35.088H19.2V36H0.72V35.088H3.84V3.312H0.72V2.4ZM13.2 3.312V21.312H14.208C16.128 21.312 17.456 20.656 18.192 19.344C18.928 18.032 19.296 15.904 19.296 12.96V10.656C19.296 7.936 18.944 6.032 18.24 4.944C17.568 3.856 16.32 3.312 14.496 3.312H13.2ZM46.9339 14.496C45.7499 14.496 44.7099 15.264 43.8139 16.8C42.9179 18.336 42.4699 20.16 42.4699 22.272V35.136H45.8779V36H30.9019V35.136H33.5419V14.016H30.9019V13.152H42.4699V17.76C42.8859 16.128 43.6859 14.88 44.8699 14.016C46.0539 13.12 47.3979 12.672 48.9019 12.672C50.4059 12.672 51.6219 13.104 52.5499 13.968C53.5099 14.8 53.9899 16 53.9899 17.568C53.9899 19.104 53.6379 20.288 52.9339 21.12C52.2299 21.952 51.1419 22.368 49.6699 22.368C48.2299 22.368 47.1579 21.888 46.4539 20.928C45.7819 19.968 45.7019 18.64 46.2139 16.944H47.9419C48.7419 15.312 48.4059 14.496 46.9339 14.496ZM69.9371 26.544V22.464C69.9371 19.36 69.7611 17.104 69.4091 15.696C69.0891 14.256 68.3211 13.536 67.1051 13.536C66.4011 13.536 65.8251 13.744 65.3771 14.16C64.9611 14.544 64.6571 15.2 64.4651 16.128C64.1771 17.568 64.0331 19.76 64.0331 22.704V26.448C64.0331 29.936 64.1291 32.032 64.3211 32.736C64.5451 33.44 64.7691 34.016 64.9931 34.464C65.3451 35.232 66.0331 35.616 67.0571 35.616C68.3051 35.616 69.1211 34.896 69.5051 33.456C69.7931 32.432 69.9371 30.128 69.9371 26.544ZM66.9611 36.48C62.9611 36.48 59.9371 35.456 57.8891 33.408C55.8411 31.36 54.8171 28.432 54.8171 24.624C54.8171 20.784 55.9051 17.84 58.0811 15.792C60.2891 13.712 63.3771 12.672 67.3451 12.672C71.3131 12.672 74.2731 13.632 76.2251 15.552C78.1771 17.44 79.1531 20.336 79.1531 24.24C79.1531 32.4 75.0891 36.48 66.9611 36.48ZM92.0636 13.152V31.872C92.0636 37.12 91.1516 41.12 89.3276 43.872C87.5356 46.624 84.5916 48 80.4956 48C77.8396 48 75.9036 47.472 74.6876 46.416C73.4396 45.36 72.8156 44.128 72.8156 42.72C72.8156 41.312 73.2316 40.224 74.0636 39.456C74.8956 38.72 75.9356 38.352 77.1836 38.352C78.4316 38.352 79.3756 38.688 80.0156 39.36C80.6236 40.064 80.9276 40.832 80.9276 41.664C80.9276 42.496 80.8316 43.296 80.6396 44.064H78.8156C78.3036 44.928 78.2396 45.664 78.6236 46.272C78.9756 46.88 79.6316 47.184 80.5916 47.184C81.5836 47.184 82.2556 46.624 82.6076 45.504C82.9596 44.416 83.1356 42.144 83.1356 38.688V14.016H80.0156V13.152H92.0636ZM87.5036 9.84C85.8076 9.84 84.5916 9.408 83.8556 8.544C83.1516 7.68 82.7996 6.608 82.7996 5.328C82.7996 4.048 83.1836 2.992 83.9516 2.16C84.7516 1.328 85.9516 0.912 87.5516 0.912C89.1516 0.912 90.3676 1.296 91.1996 2.064C92.0316 2.8 92.4476 3.872 92.4476 5.28C92.4476 6.656 92.0476 7.76 91.2476 8.592C90.4476 9.424 89.1996 9.84 87.5036 9.84ZM108.026 36.48C103.898 36.48 100.794 35.424 98.7139 33.312C96.6659 31.168 95.6419 28.208 95.6419 24.432C95.6419 20.624 96.7939 17.712 99.0979 15.696C101.434 13.68 104.394 12.672 107.978 12.672C115.242 12.672 118.73 16.32 118.442 23.616H104.906V25.488C104.906 28.624 105.306 30.992 106.106 32.592C106.906 34.192 108.298 34.992 110.282 34.992C113.994 34.992 116.426 33.008 117.578 29.04L118.442 29.184C117.834 31.488 116.73 33.28 115.13 34.56C113.562 35.84 111.194 36.48 108.026 36.48ZM104.954 22.656H109.898V20.304C109.898 17.712 109.738 15.952 109.418 15.024C109.13 14.064 108.522 13.584 107.594 13.584C106.698 13.584 106.026 14.096 105.578 15.12C105.162 16.112 104.954 17.84 104.954 20.304V22.656ZM122.552 29.136V14.016H119.912V13.152H122.552V6.96L131.48 4.752V13.152H137.72V14.016H131.48V30.192C131.48 31.696 131.624 32.8 131.912 33.504C132.232 34.208 132.872 34.56 133.832 34.56C134.792 34.56 135.624 34.08 136.328 33.12C137.064 32.16 137.544 30.848 137.768 29.184L138.584 29.28C138.328 31.488 137.624 33.248 136.472 34.56C135.32 35.84 133.416 36.48 130.76 36.48C128.104 36.48 126.072 35.952 124.664 34.896C123.256 33.84 122.552 31.92 122.552 29.136ZM146.099 9.84C144.403 9.84 143.187 9.408 142.451 8.544C141.747 7.68 141.395 6.608 141.395 5.328C141.395 4.048 141.779 2.992 142.547 2.16C143.347 1.328 144.547 0.912 146.147 0.912C147.747 0.912 148.963 1.296 149.795 2.064C150.627 2.8 151.043 3.872 151.043 5.28C151.043 6.656 150.643 7.76 149.843 8.592C149.043 9.424 147.795 9.84 146.099 9.84ZM138.851 13.152H150.611V35.136H153.299V36H139.043V35.136H141.683V14.016H138.851V13.152ZM154.373 13.152H165.941V17.568C166.453 16.096 167.237 14.912 168.293 14.016C169.349 13.12 170.949 12.672 173.093 12.672C178.053 12.672 180.533 15.344 180.533 20.688V35.136H183.221V36H169.637V35.136H171.605V19.536C171.605 17.616 171.477 16.384 171.221 15.84C170.965 15.264 170.501 14.976 169.829 14.976C168.805 14.976 167.893 15.648 167.093 16.992C166.325 18.336 165.941 19.968 165.941 21.888V35.136H168.005V36H154.373V35.136H157.013V14.016H154.373V13.152ZM183.855 -2.86102e-06H195.423V17.568C195.935 16.096 196.719 14.912 197.775 14.016C198.831 13.12 200.431 12.672 202.575 12.672C207.535 12.672 210.015 15.344 210.015 20.688V35.136H212.703V36H199.119V35.136H201.087V19.536C201.087 17.616 200.959 16.384 200.703 15.84C200.447 15.264 199.983 14.976 199.311 14.976C198.287 14.976 197.375 15.648 196.575 16.992C195.807 18.336 195.423 19.968 195.423 21.888V35.136H197.487V36H183.855V35.136H186.495V0.863997H183.855V-2.86102e-06ZM228.937 26.544V22.464C228.937 19.36 228.761 17.104 228.409 15.696C228.089 14.256 227.321 13.536 226.105 13.536C225.401 13.536 224.825 13.744 224.377 14.16C223.961 14.544 223.657 15.2 223.465 16.128C223.177 17.568 223.033 19.76 223.033 22.704V26.448C223.033 29.936 223.129 32.032 223.321 32.736C223.545 33.44 223.769 34.016 223.993 34.464C224.345 35.232 225.033 35.616 226.057 35.616C227.305 35.616 228.121 34.896 228.505 33.456C228.793 32.432 228.937 30.128 228.937 26.544ZM225.961 36.48C221.961 36.48 218.937 35.456 216.889 33.408C214.841 31.36 213.817 28.432 213.817 24.624C213.817 20.784 214.905 17.84 217.081 15.792C219.289 13.712 222.377 12.672 226.345 12.672C230.313 12.672 233.273 13.632 235.225 15.552C237.177 17.44 238.153 20.336 238.153 24.24C238.153 32.4 234.089 36.48 225.961 36.48Z" fill="#FFF500"/>
</svg>
